<svg aria-hidden="true" style="position: absolute; width: 0; height: 0; overflow: hidden;" version="1.1" xmlns="http://www.w3.org/2000/svg" xmlns:xlink="http://www.w3.org/1999/xlink">
<defs>
<symbol id="icon-menu" viewBox="0 0 32 32">
<path d="M1.332 14.222h21.333v3.556h-21.333v-3.556zM1.332 5.333h28.444v3.556h-28.444v-3.556zM1.332 26.667h12.862v-3.556h-12.862v3.556z"></path>
</symbol>
<symbol id="icon-plus-circle" viewBox="0 0 32 32">
<path d="M16 2c-7.731 0-14 6.269-14 14s6.269 14 14 14c7.731 0 14-6.269 14-14s-6.269-14-14-14zM22 16.75c0 0.137-0.113 0.25-0.25 0.25h-4.75v4.75c0 0.137-0.113 0.25-0.25 0.25h-1.5c-0.137 0-0.25-0.113-0.25-0.25v-4.75h-4.75c-0.138 0-0.25-0.113-0.25-0.25v-1.5c0-0.137 0.112-0.25 0.25-0.25h4.75v-4.75c0-0.138 0.113-0.25 0.25-0.25h1.5c0.137 0 0.25 0.112 0.25 0.25v4.75h4.75c0.137 0 0.25 0.113 0.25 0.25v1.5z"></path>
</symbol>
<symbol id="icon-minus-circle" viewBox="0 0 32 32">
<path d="M16 2c-7.731 0-14 6.269-14 14s6.269 14 14 14c7.731 0 14-6.269 14-14s-6.269-14-14-14zM22 16.75c0 0.137-0.113 0.25-0.25 0.25h-11.5c-0.138 0-0.25-0.113-0.25-0.25v-1.5c0-0.137 0.112-0.25 0.25-0.25h11.5c0.137 0 0.25 0.113 0.25 0.25v1.5z"></path>
</symbol>
<symbol id="icon-close" viewBox="0 0 32 32">
<path d="M26.667 9.213l-3.88-3.88-6.787 6.787-6.787-6.787-3.88 3.88 6.787 6.787-6.787 6.787 3.88 3.88 6.787-6.787 6.787 6.787 3.88-3.88-6.787-6.787 6.787-6.787z"></path>
</symbol>
<symbol id="icon-list" viewBox="0 0 32 32">
<path d="M6.667 21.359h-3.2c-0.106 0-0.21 0.021-0.308 0.062s-0.186 0.1-0.261 0.175-0.133 0.164-0.173 0.262c-0.040 0.098-0.060 0.203-0.059 0.309v3.2c0 0.212 0.084 0.416 0.234 0.566s0.353 0.234 0.566 0.234h3.2c0.212 0 0.416-0.084 0.566-0.234s0.234-0.353 0.234-0.566v-3.2c0.001-0.106-0.019-0.211-0.059-0.309s-0.099-0.187-0.173-0.262c-0.074-0.075-0.163-0.135-0.261-0.175s-0.202-0.062-0.308-0.062zM6.667 5.333h-3.2c-0.212 0-0.416 0.084-0.566 0.234s-0.234 0.354-0.234 0.566v3.2c0 0.212 0.084 0.416 0.234 0.566s0.353 0.234 0.566 0.234h3.2c0.212 0 0.416-0.084 0.566-0.234s0.234-0.353 0.234-0.566v-3.2c0-0.212-0.084-0.416-0.234-0.566s-0.354-0.234-0.566-0.234zM6.667 13.347h-3.2c-0.212 0-0.416 0.084-0.566 0.234s-0.234 0.353-0.234 0.566v3.2c0 0.212 0.084 0.416 0.234 0.566s0.353 0.234 0.566 0.234h3.2c0.212 0 0.416-0.084 0.566-0.234s0.234-0.353 0.234-0.566v-3.2c0-0.212-0.084-0.416-0.234-0.566s-0.354-0.234-0.566-0.234zM27.507 22.167h-16.025c-0.212 0-0.416 0.084-0.566 0.234s-0.234 0.353-0.234 0.566v1.6c0 0.105 0.021 0.209 0.061 0.306s0.099 0.185 0.173 0.26c0.074 0.074 0.162 0.133 0.26 0.173s0.201 0.061 0.306 0.061h16.025c0.105 0 0.209-0.021 0.306-0.061s0.185-0.099 0.26-0.173c0.074-0.074 0.133-0.162 0.173-0.26s0.061-0.201 0.061-0.306v-1.6c0-0.105-0.021-0.209-0.061-0.306s-0.099-0.185-0.173-0.26c-0.074-0.074-0.162-0.133-0.26-0.173s-0.201-0.061-0.306-0.061zM27.507 6.141h-16.025c-0.212 0-0.416 0.084-0.566 0.234s-0.234 0.354-0.234 0.566v1.6c0 0.212 0.084 0.416 0.234 0.566s0.354 0.234 0.566 0.234h16.025c0.105 0 0.209-0.021 0.306-0.061s0.185-0.099 0.26-0.173c0.074-0.074 0.133-0.162 0.173-0.26s0.061-0.201 0.061-0.306v-1.6c0.001-0.106-0.019-0.21-0.059-0.308s-0.099-0.187-0.173-0.262c-0.074-0.075-0.163-0.135-0.26-0.175s-0.202-0.062-0.308-0.062v0.007zM27.507 14.155h-16.025c-0.212 0-0.416 0.084-0.566 0.234s-0.234 0.353-0.234 0.566v1.6c0 0.212 0.084 0.416 0.234 0.566s0.354 0.234 0.566 0.234h16.025c0.105 0 0.209-0.021 0.306-0.061s0.185-0.099 0.26-0.173c0.074-0.074 0.133-0.162 0.173-0.26s0.061-0.201 0.061-0.306v-1.6c0.001-0.106-0.019-0.21-0.059-0.308s-0.099-0.187-0.173-0.262c-0.074-0.075-0.163-0.135-0.26-0.175s-0.202-0.062-0.308-0.062v0.007z"></path>
</symbol>
<symbol id="icon-calendar-euro" viewBox="0 0 32 32">
<path d="M27.65 8.881c-0.697 0-1.271 0.211-1.723 0.634-0.451 0.417-0.743 1.024-0.874 1.822h3.454v1.572h-3.582l-0.017 0.313v0.42l0.017 0.295h3.043v1.59h-2.897c0.291 1.447 1.208 2.17 2.751 2.17 0.817 0 1.603-0.17 2.357-0.509v2.286c-0.663 0.351-1.5 0.527-2.511 0.527-1.4 0-2.551-0.396-3.454-1.188s-1.471-1.887-1.706-3.286h-1.174v-1.59h1.011c-0.023-0.137-0.034-0.321-0.034-0.554l0.017-0.473h-0.994v-1.572h1.14c0.211-1.441 0.78-2.578 1.706-3.411 0.926-0.839 2.083-1.259 3.471-1.259 1.074 0 2.080 0.244 3.017 0.732l-0.84 2.072c-0.394-0.185-0.763-0.327-1.106-0.429-0.343-0.107-0.7-0.161-1.071-0.161z"></path>
<path d="M1.333 23.583c0 0.464 0.211 0.909 0.586 1.237s0.884 0.513 1.414 0.513h14.668c0.53-0 1.039-0.185 1.414-0.513s0.586-0.773 0.586-1.237v-9.917h-18.667v9.916zM14.668 16.438c0-0.116 0.053-0.227 0.146-0.309s0.22-0.128 0.353-0.129h1.666c0.133 0 0.26 0.046 0.353 0.128s0.147 0.193 0.147 0.309v1.458c-0 0.116-0.053 0.227-0.147 0.309s-0.221 0.128-0.353 0.128h-1.666c-0.133-0-0.26-0.046-0.353-0.128s-0.147-0.193-0.147-0.309l0.001-1.458zM14.668 21.104c0-0.116 0.053-0.227 0.147-0.309s0.221-0.128 0.353-0.128h1.667c0.133 0 0.26 0.046 0.353 0.128s0.147 0.193 0.147 0.309v1.458c-0 0.116-0.053 0.227-0.147 0.309s-0.221 0.128-0.353 0.128h-1.668c-0.133-0-0.26-0.046-0.353-0.128s-0.147-0.193-0.147-0.309l0.001-1.458zM9.334 16.438c0-0.116 0.053-0.227 0.147-0.309s0.221-0.128 0.353-0.128h1.666c0.132 0 0.259 0.046 0.353 0.128s0.147 0.193 0.147 0.308v1.458c-0 0.116-0.053 0.227-0.147 0.309s-0.221 0.128-0.353 0.128h-1.666c-0.133-0-0.26-0.046-0.353-0.128s-0.147-0.193-0.147-0.309v-1.457zM9.334 21.104c0-0.116 0.053-0.227 0.147-0.309s0.221-0.128 0.353-0.128h1.666c0.132 0 0.259 0.046 0.353 0.128s0.147 0.193 0.147 0.308v1.458c-0 0.116-0.053 0.227-0.147 0.309s-0.221 0.128-0.353 0.128h-1.666c-0.133-0-0.26-0.046-0.353-0.128s-0.147-0.193-0.147-0.309v-1.457zM4 16.438c0-0.116 0.053-0.227 0.147-0.309s0.221-0.128 0.353-0.128h1.666c0.133 0 0.26 0.046 0.353 0.128s0.146 0.193 0.147 0.309v1.458c-0 0.116-0.053 0.227-0.147 0.309s-0.221 0.128-0.353 0.128h-1.666c-0.133-0-0.26-0.046-0.353-0.128s-0.147-0.193-0.147-0.309v-1.458zM4 21.104c0-0.116 0.053-0.227 0.147-0.309s0.221-0.128 0.353-0.128h1.666c0.133 0 0.26 0.046 0.353 0.128s0.146 0.193 0.147 0.309v1.458c-0 0.116-0.053 0.227-0.147 0.309s-0.221 0.128-0.353 0.128h-1.666c-0.133-0-0.26-0.046-0.353-0.128s-0.147-0.193-0.147-0.309v-1.458zM18 9h-2.001v-1.751c-0.001-0.154-0.071-0.302-0.196-0.411s-0.294-0.171-0.47-0.171h-1.333c-0.176 0.001-0.346 0.062-0.47 0.171s-0.195 0.257-0.196 0.411v1.751h-5.334v-1.751c-0.001-0.155-0.071-0.303-0.196-0.412s-0.294-0.171-0.471-0.171h-1.333c-0.176 0.001-0.346 0.062-0.47 0.171s-0.195 0.257-0.196 0.411v1.751h-2.001c-0.53 0-1.039 0.185-1.414 0.513s-0.586 0.773-0.586 1.237v1.751h18.667v-1.751c-0-0.464-0.211-0.909-0.586-1.237s-0.883-0.512-1.414-0.513z"></path>
</symbol>
<symbol id="icon-check-circle" viewBox="0 0 32 32">
<path d="M16 2.667c-7.352 0-13.333 5.981-13.333 13.333s5.981 13.333 13.333 13.333c7.352 0 13.333-5.981 13.333-13.333s-5.981-13.333-13.333-13.333zM13.335 21.884l-4.951-4.94 1.883-1.888 3.065 3.060 7.059-7.059 1.885 1.885-8.941 8.941z"></path>
</symbol>
<symbol id="icon-house" viewBox="0 0 32 32">
<path d="M29.334 12l-13.333-10.667-13.333 10.667v2.667h2.667v13.333h6.667v-5.333c0-1.061 0.421-2.078 1.172-2.828s1.768-1.172 2.828-1.172 2.078 0.421 2.828 1.172c0.75 0.75 1.172 1.768 1.172 2.828v5.333h6.667v-13.333h2.667v-2.667z"></path>
</symbol>
<symbol id="icon-settings" viewBox="0 0 32 32">
<path d="M28.951 13.973l-2.978-0.889c-0.206-0.719-0.489-1.413-0.844-2.071l1.458-2.729c0.055-0.103 0.075-0.221 0.057-0.336s-0.072-0.222-0.155-0.304l-2.124-2.133c-0.082-0.083-0.188-0.137-0.304-0.155s-0.233 0.002-0.336 0.057l-2.711 1.449c-0.664-0.373-1.368-0.671-2.098-0.889l-0.889-2.942c-0.038-0.108-0.109-0.202-0.203-0.268s-0.207-0.099-0.322-0.097h-3.004c-0.115 0.001-0.228 0.038-0.32 0.107s-0.161 0.165-0.195 0.276l-0.889 2.933c-0.736 0.217-1.446 0.515-2.116 0.889l-2.667-1.44c-0.103-0.055-0.221-0.075-0.336-0.057s-0.222 0.072-0.304 0.155l-2.16 2.107c-0.083 0.082-0.137 0.189-0.155 0.304s0.002 0.233 0.057 0.336l1.44 2.667c-0.373 0.667-0.671 1.374-0.889 2.107l-2.942 0.889c-0.11 0.034-0.207 0.102-0.276 0.195s-0.106 0.205-0.107 0.32v3.004c0.001 0.115 0.038 0.228 0.107 0.32s0.165 0.161 0.276 0.195l2.96 0.889c0.22 0.721 0.518 1.415 0.889 2.071l-1.458 2.791c-0.055 0.103-0.075 0.221-0.057 0.336s0.072 0.222 0.155 0.304l2.124 2.124c0.082 0.083 0.189 0.137 0.304 0.155s0.233-0.002 0.336-0.057l2.747-1.467c0.65 0.351 1.335 0.631 2.044 0.836l0.889 2.996c0.034 0.11 0.102 0.207 0.195 0.276s0.205 0.106 0.32 0.107h3.004c0.115-0.001 0.228-0.038 0.32-0.107s0.161-0.165 0.195-0.276l0.889-3.004c0.703-0.206 1.383-0.486 2.027-0.836l2.764 1.476c0.103 0.055 0.221 0.075 0.336 0.057s0.222-0.072 0.304-0.155l2.124-2.124c0.083-0.082 0.137-0.189 0.155-0.304s-0.002-0.233-0.057-0.336l-1.476-2.756c0.353-0.646 0.636-1.329 0.844-2.036l2.996-0.889c0.11-0.034 0.207-0.102 0.276-0.195s0.106-0.205 0.107-0.32v-3.031c0.005-0.111-0.023-0.22-0.082-0.314s-0.145-0.167-0.247-0.211zM16 20.889c-0.967 0-1.912-0.287-2.716-0.824s-1.431-1.301-1.801-2.194c-0.37-0.893-0.467-1.876-0.278-2.825s0.654-1.819 1.338-2.503c0.684-0.684 1.555-1.149 2.503-1.338s1.931-0.092 2.825 0.278c0.893 0.37 1.657 0.997 2.194 1.801s0.824 1.749 0.824 2.716c0 1.297-0.515 2.54-1.432 3.457s-2.16 1.432-3.457 1.432z"></path>
</symbol>
<symbol id="icon-ticket" viewBox="0 0 32 32">
<path d="M5.333 5.333c-0.707 0-1.386 0.281-1.886 0.781s-0.781 1.178-0.781 1.886v5.333c0.707 0 1.386 0.281 1.886 0.781s0.781 1.178 0.781 1.886-0.281 1.386-0.781 1.886c-0.5 0.5-1.178 0.781-1.886 0.781v5.333c0 0.707 0.281 1.386 0.781 1.886s1.178 0.781 1.886 0.781h21.333c0.707 0 1.386-0.281 1.886-0.781s0.781-1.178 0.781-1.886v-5.333c-0.707 0-1.386-0.281-1.886-0.781s-0.781-1.178-0.781-1.886 0.281-1.386 0.781-1.886c0.5-0.5 1.178-0.781 1.886-0.781v-5.333c0-0.707-0.281-1.386-0.781-1.886s-1.178-0.781-1.886-0.781h-21.333zM20.667 9.333l2 2-11.333 11.333-2-2 11.333-11.333zM11.747 9.387c1.307 0 2.36 1.053 2.36 2.36 0 0.626-0.249 1.226-0.691 1.669s-1.043 0.691-1.669 0.691c-1.307 0-2.36-1.053-2.36-2.36 0-0.626 0.249-1.226 0.691-1.669s1.043-0.691 1.669-0.691zM20.253 17.893c1.307 0 2.36 1.053 2.36 2.36 0 0.626-0.249 1.226-0.691 1.669s-1.043 0.691-1.669 0.691c-1.307 0-2.36-1.053-2.36-2.36 0-0.626 0.249-1.226 0.691-1.669s1.043-0.691 1.669-0.691z"></path>
</symbol>
<symbol id="icon-exit" viewBox="0 0 32 32">
<path d="M13.453 20.787l1.88 1.88 6.667-6.667-6.667-6.667-1.88 1.88 3.44 3.453h-12.893v2.667h12.893l-3.44 3.453zM25.333 4h-18.667c-0.707 0-1.386 0.281-1.886 0.781s-0.781 1.178-0.781 1.886v5.333h2.667v-5.333h18.667v18.667h-18.667v-5.333h-2.667v5.333c0 0.707 0.281 1.386 0.781 1.886s1.178 0.781 1.886 0.781h18.667c1.467 0 2.667-1.2 2.667-2.667v-18.667c0-1.467-1.2-2.667-2.667-2.667z"></path>
</symbol>
<symbol id="icon-payment-card" viewBox="0 0 32 32">
<path d="M26.667 5.333h-21.333c-1.48 0-2.653 1.187-2.653 2.667l-0.013 16c0 1.48 1.187 2.667 2.667 2.667h21.333c1.48 0 2.667-1.187 2.667-2.667v-16c0-1.48-1.187-2.667-2.667-2.667zM26.667 24h-21.333v-8h21.333v8zM26.667 10.667h-21.333v-2.667h21.333v2.667z"></path>
</symbol>
<symbol id="icon-airplane" viewBox="0 0 32 32">
<path d="M4.776 25.247h22.485v2.753h-22.485v-2.753zM27.936 12.359c-0.035-0.245-0.121-0.48-0.252-0.689s-0.306-0.389-0.511-0.527c-0.205-0.138-0.437-0.231-0.681-0.273s-0.494-0.032-0.733 0.028l-6.285 1.961-8.165-8.86-2.284 0.703 4.9 9.867-5.876 1.837-2.332-2.12-1.716 0.533 2.153 4.351 0.911 1.831 1.893-0.592 17.712-5.504c0.485-0.198 0.881-0.565 1.114-1.034s0.287-1.006 0.153-1.512z"></path>
</symbol>
<symbol id="icon-lock" viewBox="0 0 32 32">
<path d="M24 10.667h-1.333v-2.667c0-3.68-2.987-6.667-6.667-6.667s-6.667 2.987-6.667 6.667v2.667h-1.333c-1.467 0-2.667 1.2-2.667 2.667v13.333c0 1.467 1.2 2.667 2.667 2.667h16c1.467 0 2.667-1.2 2.667-2.667v-13.333c0-1.467-1.2-2.667-2.667-2.667zM16 22.667c-1.467 0-2.667-1.2-2.667-2.667s1.2-2.667 2.667-2.667c1.467 0 2.667 1.2 2.667 2.667s-1.2 2.667-2.667 2.667zM20.133 10.667h-8.267v-2.667c0-2.28 1.853-4.133 4.133-4.133s4.133 1.853 4.133 4.133v2.667z"></path>
</symbol>
<symbol id="icon-check" viewBox="0 0 32 32">
<path d="M12 27.227l-8.28-8.28 3.773-3.773 4.507 4.52 13.173-13.187 3.773 3.773-16.947 16.947z"></path>
</symbol>
<symbol id="icon-arrow-right" viewBox="0 0 32 32">
<path d="M4.13 17.329v-2.659h19.969l-6.213-6.213 1.886-1.886 9.428 9.428-9.428 9.428-1.886-1.886 6.213-6.213h-19.969z"></path>
</symbol>
<symbol id="icon-search" viewBox="0 0 32 32">
<path d="M27.613 25.72l-4.533-4.52c1.463-1.863 2.256-4.164 2.253-6.533 0-2.11-0.626-4.172-1.798-5.926s-2.838-3.121-4.787-3.929c-1.949-0.807-4.094-1.019-6.163-0.607s-3.97 1.427-5.462 2.919c-1.492 1.492-2.508 3.392-2.919 5.462s-0.2 4.214 0.607 6.163c0.807 1.949 2.175 3.615 3.929 4.787s3.816 1.798 5.926 1.798c2.369 0.003 4.67-0.791 6.533-2.253l4.52 4.533c0.124 0.125 0.271 0.224 0.434 0.292s0.337 0.103 0.513 0.103 0.35-0.035 0.513-0.103c0.162-0.068 0.31-0.167 0.434-0.292 0.125-0.124 0.224-0.271 0.292-0.434s0.103-0.337 0.103-0.513-0.035-0.35-0.103-0.513c-0.068-0.163-0.167-0.31-0.292-0.434zM6.667 14.667c0-1.582 0.469-3.129 1.348-4.445s2.128-2.341 3.59-2.946c1.462-0.606 3.070-0.764 4.622-0.455s2.977 1.071 4.096 2.189c1.119 1.119 1.881 2.544 2.189 4.096s0.15 3.16-0.455 4.622c-0.606 1.462-1.631 2.711-2.946 3.59s-2.862 1.348-4.445 1.348c-2.122 0-4.157-0.843-5.657-2.343s-2.343-3.535-2.343-5.657z"></path>
</symbol>
<symbol id="icon-phone" viewBox="0 0 32 32">
<path d="M27.316 20.959l-5.25-2.25c-0.224-0.096-0.474-0.116-0.71-0.057s-0.448 0.192-0.602 0.381l-2.325 2.841c-3.649-1.72-6.586-4.657-8.306-8.306l2.841-2.325c0.189-0.154 0.323-0.365 0.382-0.602s0.038-0.486-0.058-0.71l-2.25-5.25c-0.105-0.242-0.292-0.439-0.527-0.558s-0.505-0.152-0.762-0.094l-4.875 1.125c-0.248 0.057-0.469 0.197-0.627 0.396s-0.245 0.446-0.244 0.7c0 12.024 9.745 21.75 21.75 21.75 0.254 0 0.502-0.086 0.701-0.244s0.339-0.38 0.396-0.628l1.125-4.875c0.058-0.258 0.024-0.529-0.096-0.765s-0.318-0.423-0.561-0.529v0z"></path>
</symbol>
<symbol id="icon-messanger" viewBox="0 0 32 32">
<path d="M17.256 19.217l-3.413-3.547-6.576 3.636 7.208-7.648 3.413 3.547 6.573-3.636-7.205 7.648zM15.865 2.667c-7.289 0-13.199 5.525-13.199 12.343 0 3.877 1.912 7.337 4.904 9.6v4.724l4.504-2.499c1.2 0.336 2.473 0.517 3.791 0.517 7.291 0 13.2-5.527 13.2-12.343 0-6.817-5.909-12.343-13.2-12.343z"></path>
</symbol>
<symbol id="icon-user" viewBox="0 0 32 32">
<path d="M16 2.667c-7.36 0-13.333 5.973-13.333 13.333s5.973 13.333 13.333 13.333c7.36 0 13.333-5.973 13.333-13.333s-5.973-13.333-13.333-13.333zM9.427 24.373c0.573-1.2 4.067-2.373 6.573-2.373s6.013 1.173 6.573 2.373c-1.813 1.44-4.093 2.293-6.573 2.293s-4.76-0.853-6.573-2.293zM24.48 22.44c-1.907-2.32-6.533-3.107-8.48-3.107s-6.573 0.787-8.48 3.107c-1.416-1.848-2.185-4.111-2.187-6.44 0-5.88 4.787-10.667 10.667-10.667s10.667 4.787 10.667 10.667c0 2.427-0.827 4.653-2.187 6.44zM16 8c-2.587 0-4.667 2.080-4.667 4.667s2.080 4.667 4.667 4.667c2.587 0 4.667-2.080 4.667-4.667s-2.080-4.667-4.667-4.667zM16 14.667c-1.107 0-2-0.893-2-2s0.893-2 2-2c1.107 0 2 0.893 2 2s-0.893 2-2 2z"></path>
</symbol>
<symbol id="icon-mail" viewBox="0 0 32 32">
<path d="M26.667 5.333h-21.333c-1.467 0-2.653 1.2-2.653 2.667l-0.013 16c0 1.467 1.2 2.667 2.667 2.667h21.333c1.467 0 2.667-1.2 2.667-2.667v-16c0-1.467-1.2-2.667-2.667-2.667zM26.667 10.667l-10.667 6.667-10.667-6.667v-2.667l10.667 6.667 10.667-6.667v2.667z"></path>
</symbol>
<symbol id="icon-offer" viewBox="0 0 32 32">
<path d="M25.341 15.984l1.717-2.967-2.968-1.715v-3.421h-3.42l-1.715-2.968-2.97 1.717-2.969-1.718-1.716 2.969h-3.419v3.419l-2.969 1.716 1.718 2.969-1.718 2.969 2.967 1.715v3.419h3.421l1.716 2.968 2.968-1.717 2.971 1.717 1.714-2.968h3.42v-3.419l2.969-1.716-1.716-2.969zM18.531 29.121l-2.547-1.472-2.544 1.472c-0.205 0.119-0.436 0.18-0.668 0.18-0.234-0.001-0.463-0.063-0.666-0.18s-0.371-0.284-0.489-0.486l-1.472-2.547h-2.933c-0.354 0-0.693-0.14-0.943-0.39s-0.391-0.589-0.391-0.943v-2.932l-2.547-1.472c-0.305-0.178-0.527-0.47-0.618-0.811s-0.043-0.705 0.133-1.011l1.472-2.544-1.472-2.544c-0.088-0.151-0.146-0.319-0.169-0.493s-0.012-0.35 0.033-0.52c0.045-0.169 0.123-0.328 0.23-0.467s0.24-0.256 0.392-0.343l2.547-1.472v-2.932c0-0.354 0.14-0.693 0.391-0.943s0.589-0.391 0.943-0.391h2.932l1.472-2.547c0.177-0.306 0.468-0.53 0.81-0.621s0.705-0.044 1.012 0.133l2.547 1.473 2.547-1.472c0.151-0.088 0.319-0.145 0.493-0.168s0.35-0.011 0.519 0.035c0.341 0.093 0.632 0.316 0.809 0.621l1.471 2.545h2.932c0.354 0 0.693 0.14 0.943 0.391s0.391 0.589 0.391 0.943v2.933l2.547 1.472c0.306 0.177 0.529 0.468 0.62 0.81s0.043 0.705-0.134 1.011l-1.472 2.544 1.471 2.544c0.088 0.152 0.145 0.319 0.168 0.493s0.012 0.35-0.034 0.519c-0.045 0.169-0.123 0.328-0.23 0.467s-0.24 0.256-0.391 0.343l-2.547 1.472v2.932c0 0.354-0.14 0.693-0.391 0.943s-0.589 0.39-0.943 0.39h-2.932l-1.471 2.547c-0.177 0.306-0.469 0.529-0.81 0.62s-0.705 0.043-1.011-0.133z"></path>
<path d="M12.651 9.304c0.531 0 1.039 0.211 1.414 0.586s0.586 0.884 0.586 1.415c-0 0.531-0.211 1.039-0.586 1.415s-0.884 0.586-1.415 0.585c-0.531-0-1.039-0.211-1.415-0.586s-0.586-0.884-0.585-1.415c0-0.531 0.211-1.039 0.586-1.414s0.884-0.586 1.415-0.586zM13.051 22.104l-2.133-1.599 8-10.667 2.133 1.599-8 10.667zM19.318 22.637c-0.263-0-0.523-0.052-0.766-0.153s-0.463-0.248-0.649-0.434c-0.186-0.186-0.333-0.406-0.433-0.649s-0.152-0.503-0.152-0.766c0-0.263 0.052-0.523 0.153-0.766s0.248-0.463 0.434-0.649c0.186-0.186 0.406-0.333 0.649-0.433s0.503-0.152 0.766-0.152c0.531 0 1.039 0.211 1.414 0.586s0.586 0.884 0.586 1.415c-0 0.531-0.211 1.039-0.586 1.415s-0.884 0.586-1.415 0.585z"></path>
</symbol>
<symbol id="icon-food" viewBox="0 0 32 32">
<path d="M9.351 4.001c-1.302-0.027-2.567 0.432-3.549 1.286s-1.612 2.044-1.765 3.337c-0.154 1.293 0.18 2.597 0.934 3.658s1.877 1.803 3.149 2.082l-0.883 12.14c0.003 0.211 0.049 0.418 0.136 0.61s0.213 0.363 0.369 0.504c0.157 0.141 0.341 0.247 0.541 0.313s0.411 0.090 0.621 0.070h0.889c0.21 0.021 0.422-0.003 0.622-0.068s0.385-0.172 0.542-0.313c0.157-0.141 0.283-0.313 0.37-0.505s0.133-0.4 0.136-0.611l-0.883-12.14c1.267-0.283 2.385-1.026 3.135-2.086s1.082-2.36 0.928-3.65-0.78-2.476-1.758-3.33c-0.978-0.854-2.238-1.315-3.537-1.293v-0.004zM27.276 4.001l-1.481 7.5h-1.111l-0.741-7.5h-0.741l-0.741 7.5h-1.111l-1.48-7.5h-0.741v9.751c0.020 0.217 0.124 0.417 0.291 0.558s0.382 0.21 0.599 0.193h2.315l-0.873 12c0.003 0.211 0.049 0.419 0.136 0.611s0.213 0.364 0.37 0.505c0.157 0.141 0.341 0.247 0.542 0.313s0.412 0.089 0.622 0.069h0.889c0.21 0.020 0.422-0.003 0.622-0.069s0.385-0.172 0.542-0.313c0.157-0.141 0.283-0.313 0.37-0.505s0.133-0.4 0.136-0.611l-0.873-12h2.315c0.217 0.017 0.432-0.052 0.598-0.192s0.271-0.34 0.291-0.557v-9.752h-0.741z"></path>
</symbol>
<symbol id="icon-sun" viewBox="0 0 32 32">
<path d="M16.003 11.499c-0.89 0-1.76 0.264-2.501 0.759s-1.317 1.198-1.657 2.020c-0.34 0.822-0.429 1.727-0.256 2.6s0.603 1.674 1.232 2.304c0.63 0.629 1.432 1.058 2.305 1.231s1.778 0.084 2.601-0.256c0.822-0.341 1.525-0.917 2.020-1.657s0.759-1.61 0.759-2.5c-0.002-1.193-0.477-2.337-1.321-3.18s-1.988-1.318-3.182-1.32zM27.557 15.272l-4.44-2.216 1.571-4.707c0.048-0.143 0.055-0.297 0.021-0.444s-0.109-0.281-0.216-0.388c-0.107-0.107-0.241-0.181-0.388-0.216s-0.301-0.027-0.444 0.021l-4.708 1.569-2.223-4.443c-0.067-0.135-0.171-0.249-0.299-0.328s-0.276-0.122-0.427-0.122c-0.151 0-0.299 0.042-0.427 0.122s-0.232 0.193-0.299 0.328l-2.217 4.439-4.714-1.571c-0.143-0.048-0.297-0.055-0.444-0.021s-0.281 0.109-0.388 0.216c-0.107 0.107-0.182 0.241-0.216 0.388s-0.027 0.3 0.021 0.444l1.571 4.707-4.44 2.221c-0.135 0.067-0.249 0.171-0.328 0.299s-0.122 0.276-0.122 0.427c0 0.151 0.042 0.299 0.122 0.427s0.193 0.232 0.328 0.299l4.44 2.217-1.571 4.712c-0.048 0.143-0.055 0.297-0.021 0.443s0.109 0.281 0.216 0.388c0.107 0.107 0.241 0.181 0.388 0.216s0.301 0.027 0.444-0.021l4.708-1.571 2.218 4.439c0.067 0.135 0.171 0.249 0.299 0.328s0.276 0.121 0.427 0.121 0.299-0.042 0.427-0.121c0.128-0.079 0.232-0.193 0.299-0.328l2.211-4.439 4.708 1.571c0.143 0.048 0.297 0.055 0.444 0.021s0.281-0.109 0.388-0.216c0.107-0.107 0.182-0.241 0.216-0.388s0.027-0.3-0.021-0.443l-1.571-4.707 4.44-2.217c0.137-0.066 0.252-0.169 0.333-0.297s0.125-0.277 0.126-0.428c0.001-0.152-0.041-0.301-0.12-0.43s-0.193-0.234-0.329-0.302l0.007-0.001zM20.247 20.242c-0.839 0.839-1.909 1.411-3.073 1.642s-2.371 0.113-3.468-0.341-2.034-1.223-2.694-2.21c-0.66-0.987-1.012-2.147-1.012-3.333s0.352-2.347 1.012-3.333c0.66-0.987 1.597-1.756 2.694-2.21s2.304-0.573 3.468-0.341c1.164 0.232 2.234 0.803 3.073 1.642 0.557 0.557 0.999 1.219 1.301 1.947s0.457 1.508 0.457 2.296-0.155 1.568-0.457 2.296c-0.302 0.728-0.744 1.389-1.301 1.947z"></path>
</symbol>
<symbol id="icon-fast-time" viewBox="0 0 32 32">
<path d="M19.439 25.651c-2.179 0-4.268-0.866-5.808-2.408s-2.406-3.633-2.406-5.814 0.865-4.272 2.406-5.814c1.54-1.542 3.63-2.408 5.808-2.408s4.268 0.866 5.808 2.408c1.541 1.542 2.406 3.633 2.406 5.814s-0.865 4.272-2.406 5.814c-1.54 1.542-3.63 2.408-5.808 2.408zM27.688 10.839l1.666-1.668c-0.528-0.599-1.056-1.139-1.655-1.656l-1.666 1.691c-1.819-1.48-4.107-2.349-6.595-2.349-2.801 0-5.487 1.114-7.468 3.096s-3.093 4.671-3.093 7.475c0 2.804 1.113 5.493 3.093 7.475s4.667 3.096 7.468 3.096c5.867 0 10.561-4.734 10.561-10.571 0-2.49-0.868-4.781-2.312-6.59zM18.265 18.603h2.347v-7.048h-2.347v7.048zM22.959 3.333h-7.041v2.349h7.041v-2.349z"></path>
<path d="M4.552 19.878h3.219v2.416h-3.219v-2.416z"></path>
<path d="M2.943 11.823h4.828v2.416h-4.828v-2.416z"></path>
<path d="M1.333 15.851h5.633v2.416h-5.633v-2.416z"></path>
</symbol>
<symbol id="icon-point" viewBox="0 0 32 32">
<path d="M16 15.333c-0.884 0-1.732-0.351-2.357-0.976s-0.976-1.473-0.976-2.357 0.351-1.732 0.976-2.357c0.625-0.625 1.473-0.976 2.357-0.976s1.732 0.351 2.357 0.976c0.625 0.625 0.976 1.473 0.976 2.357 0 0.438-0.086 0.871-0.254 1.276s-0.413 0.772-0.723 1.081c-0.31 0.31-0.677 0.555-1.081 0.723s-0.838 0.254-1.276 0.254zM16 2.667c-2.475 0-4.849 0.983-6.6 2.734s-2.734 4.124-2.734 6.6c0 7 9.333 17.333 9.333 17.333s9.333-10.333 9.333-17.333c0-2.475-0.983-4.849-2.734-6.6s-4.124-2.734-6.6-2.734z"></path>
</symbol>
<symbol id="icon-clock" viewBox="0 0 32 32">
<path d="M16 2.667c-7.333 0-13.333 6-13.333 13.333s6 13.333 13.333 13.333c7.333 0 13.333-6 13.333-13.333s-6-13.333-13.333-13.333zM21.733 20.267l-7.067-3.867v-7.067h2v5.867l6 3.333-0.933 1.733z"></path>
</symbol>
<symbol id="icon-more" viewBox="0 0 32 32">
<path d="M22.107 11.453l-6.107 6.107-6.12-6.107-1.88 1.88 8 8 8-8-1.893-1.88z"></path>
</symbol>
<symbol id="icon-zoom" viewBox="0 0 32 32">
<path d="M17.996 13.329v1.333c-0 0.133-0.053 0.26-0.147 0.353s-0.221 0.147-0.353 0.147h-2.331v2.334c-0 0.133-0.053 0.26-0.147 0.353s-0.221 0.147-0.353 0.147h-1.337c-0.133-0-0.26-0.053-0.353-0.147s-0.147-0.221-0.147-0.353v-2.33h-2.333c-0.133-0-0.26-0.053-0.353-0.147s-0.147-0.221-0.147-0.353v-1.337c0-0.133 0.053-0.26 0.147-0.353s0.221-0.147 0.353-0.147h2.333v-2.333c0-0.133 0.053-0.26 0.147-0.353s0.221-0.147 0.353-0.147h1.334c0.066-0 0.131 0.012 0.192 0.037s0.117 0.062 0.163 0.108 0.084 0.102 0.109 0.163c0.025 0.061 0.039 0.126 0.039 0.192v2.333h2.334c0.132 0.001 0.258 0.054 0.351 0.148s0.145 0.22 0.146 0.352zM26.373 25.193l-1.179 1.179c-0.093 0.093-0.203 0.167-0.324 0.218s-0.251 0.076-0.383 0.076-0.261-0.026-0.383-0.076c-0.121-0.050-0.231-0.124-0.324-0.218l-4.16-4.154c-0.093-0.093-0.167-0.204-0.217-0.326s-0.075-0.253-0.075-0.385v-0.679c-1.739 1.357-3.931 2-6.128 1.797s-4.234-1.236-5.695-2.888c-1.461-1.653-2.237-3.8-2.17-6.005s0.974-4.301 2.534-5.861 3.656-2.466 5.861-2.534c2.205-0.068 4.353 0.708 6.006 2.169s2.686 3.498 2.889 5.694c0.203 2.197-0.44 4.388-1.797 6.127h0.679c0.132-0.001 0.263 0.025 0.385 0.075s0.233 0.124 0.326 0.217l4.155 4.154c0.187 0.189 0.292 0.445 0.291 0.71s-0.106 0.521-0.293 0.709zM19.664 13.996c0-1.121-0.332-2.216-0.955-3.148s-1.508-1.658-2.543-2.087c-1.036-0.429-2.175-0.541-3.274-0.322s-2.109 0.758-2.902 1.551c-0.793 0.793-1.332 1.802-1.551 2.901s-0.106 2.239 0.323 3.274 1.155 1.92 2.087 2.543c0.932 0.623 2.028 0.955 3.149 0.955 0.744 0 1.481-0.146 2.169-0.43s1.313-0.702 1.839-1.228c0.526-0.526 0.944-1.151 1.228-1.839s0.431-1.425 0.43-2.169h0.001z"></path>
</symbol>
<symbol id="icon-calendar" viewBox="0 0 32 32">
<path d="M12 13.333v2.667h-2.667v-2.667h2.667zM17.333 13.333v2.667h-2.667v-2.667h2.667zM22.667 13.333v2.667h-2.667v-2.667h2.667zM25.333 4c0.707 0 1.386 0.281 1.886 0.781s0.781 1.178 0.781 1.886v18.667c0 0.707-0.281 1.386-0.781 1.886s-1.178 0.781-1.886 0.781h-18.667c-0.707 0-1.386-0.281-1.886-0.781s-0.781-1.178-0.781-1.886v-18.667c0-0.707 0.281-1.386 0.781-1.886s1.178-0.781 1.886-0.781h1.333v-2.667h2.667v2.667h10.667v-2.667h2.667v2.667h1.333zM25.333 25.333v-14.667h-18.667v14.667h18.667zM12 18.667v2.667h-2.667v-2.667h2.667zM17.333 18.667v2.667h-2.667v-2.667h2.667zM22.667 18.667v2.667h-2.667v-2.667h2.667z"></path>
</symbol>
<symbol id="icon-star" viewBox="0 0 32 32">
<path d="M23.413 28c-0.213 0.001-0.424-0.049-0.613-0.147l-6.8-3.56-6.8 3.56c-0.221 0.116-0.47 0.168-0.719 0.15s-0.487-0.106-0.689-0.253c-0.201-0.147-0.357-0.348-0.45-0.58s-0.119-0.484-0.075-0.73l1.333-7.507-5.493-5.333c-0.171-0.171-0.293-0.386-0.352-0.62s-0.052-0.481 0.018-0.713c0.077-0.237 0.219-0.448 0.41-0.608s0.423-0.264 0.67-0.299l7.6-1.107 3.347-6.84c0.109-0.225 0.28-0.416 0.492-0.549s0.458-0.204 0.708-0.204 0.496 0.071 0.708 0.204c0.212 0.133 0.383 0.323 0.492 0.549l3.387 6.827 7.6 1.107c0.247 0.035 0.479 0.139 0.67 0.299s0.333 0.371 0.41 0.608c0.071 0.232 0.077 0.478 0.018 0.713s-0.18 0.449-0.352 0.62l-5.493 5.333 1.333 7.507c0.048 0.25 0.023 0.508-0.072 0.745s-0.255 0.441-0.462 0.589c-0.241 0.169-0.532 0.254-0.827 0.24v0z"></path>
</symbol>
<symbol id="icon-drop-down" viewBox="0 0 32 32">
<path d="M9.333 13.333l6.667 6.667 6.667-6.667h-13.333z"></path>
</symbol>
</defs>
</svg>
